<?xml version="1.0" standalone="no"?>
<!DOCTYPE svg PUBLIC "-//W3C//DTD SVG 20010904//EN"
 "http://www.w3.org/TR/2001/REC-SVG-20010904/DTD/svg10.dtd">
<svg version="1.0" xmlns="http://www.w3.org/2000/svg"
 width="500.000000pt" height="500.000000pt" viewBox="0 0 500.000000 500.000000"
 preserveAspectRatio="xMidYMid meet">

<g transform="translate(0.000000,500.000000) scale(0.100000,-0.100000)"
fill="#000000" stroke="none">
<path d="M500 2500 l0 -2000 2000 0 2000 0 0 2000 0 2000 -2000 0 -2000 0 0
-2000z m3980 0 l0 -1980 -1980 0 -1980 0 0 1980 0 1980 1980 0 1980 0 0 -1980z"/>
<path d="M2469 4147 c-149 -42 -225 -147 -218 -300 7 -119 69 -216 240 -372
240 -220 283 -261 322 -313 103 -134 133 -220 124 -366 -13 -245 -154 -394
-391 -414 -50 -4 -81 -12 -84 -19 -6 -19 125 -17 202 3 203 52 349 197 401
399 22 87 20 232 -5 302 -46 130 -159 257 -411 458 -182 146 -256 222 -296
302 -46 94 -31 198 38 256 46 40 97 57 168 57 119 0 226 -88 286 -235 l23 -57
6 98 c4 55 9 119 11 143 4 38 3 42 -10 31 -22 -18 -95 -14 -173 10 -86 27
-175 33 -233 17z"/>
<path d="M1853 3670 c-94 -19 -169 -74 -211 -155 -22 -42 -26 -63 -26 -130 0
-67 5 -89 28 -135 42 -85 95 -149 207 -251 228 -209 256 -236 315 -306 135
-161 170 -296 124 -476 -24 -97 -57 -153 -125 -215 -83 -76 -150 -97 -310 -97
-111 0 -139 3 -190 23 -161 61 -259 191 -287 376 -38 252 136 506 372 545 l55
9 -56 1 c-70 1 -195 -30 -259 -65 -323 -176 -281 -686 70 -857 109 -53 177
-69 305 -68 125 0 196 16 295 64 183 90 300 308 287 532 -6 103 -36 178 -111
278 -67 90 -123 142 -311 292 -261 208 -343 317 -332 435 3 32 13 72 23 89 51
86 202 127 301 82 50 -23 124 -90 155 -139 12 -19 32 -60 44 -91 l24 -56 0 60
c0 33 3 97 7 142 l6 83 -29 -10 c-32 -11 -66 -6 -198 29 -84 22 -106 24 -173
11z"/>
<path d="M2345 3340 c-81 -9 -171 -36 -224 -67 -56 -33 -128 -99 -147 -134
-13 -27 -12 -29 23 -58 21 -17 40 -31 44 -31 3 0 15 19 25 42 49 108 200 221
314 235 27 3 50 10 50 14 0 5 -6 8 -12 8 -7 -1 -40 -5 -73 -9z"/>
<path d="M2297 3286 l-28 -12 59 -37 c32 -20 91 -66 130 -103 l72 -66 0 -334
c0 -216 4 -334 10 -334 6 0 10 113 10 318 l1 317 28 -32 c44 -52 126 -198 188
-335 64 -140 66 -141 108 -58 46 91 44 108 -20 212 -142 228 -268 354 -443
442 -79 40 -76 39 -115 22z"/>
<path d="M3636 3068 c-32 -72 -200 -443 -332 -732 l-108 -240 -22 50 c-12 27
-57 131 -99 231 l-77 182 -61 -62 c-34 -34 -60 -67 -59 -74 11 -54 248 -557
305 -648 144 -230 326 -391 501 -444 77 -24 215 -37 270 -27 66 13 37 25 -57
25 -159 -1 -242 34 -357 150 -79 79 -145 171 -200 281 -45 89 -130 291 -130
309 0 8 60 147 134 310 74 163 169 374 212 470 l79 174 3 -519 c2 -285 0 -539
-3 -563 -5 -32 -16 -54 -40 -78 l-33 -33 160 0 160 0 -30 28 c-16 16 -35 46
-41 68 -15 55 -15 1039 0 1100 7 28 23 54 41 69 l30 25 -111 0 -111 0 -24 -52z"/>
<path d="M1907 2858 c12 -145 48 -231 141 -329 58 -62 151 -123 220 -144 44
-13 23 23 -32 54 -100 56 -171 146 -206 260 -11 35 -20 77 -20 94 0 23 -11 42
-42 74 -56 57 -66 56 -61 -9z"/>
<path d="M2530 2150 c0 -221 -11 -254 -105 -303 -29 -15 -23 -16 119 -17 l148
0 -48 33 c-82 55 -88 74 -92 285 -2 100 -8 182 -13 182 -5 0 -9 -79 -9 -180z"/>
<path d="M894 1512 c-6 -4 -13 -15 -17 -25 -7 -18 3 -29 52 -66 16 -12 22 -24
18 -34 -7 -20 -47 -22 -66 -4 -11 10 -13 9 -9 -3 6 -19 55 -25 74 -9 25 20 16
52 -21 77 -36 23 -45 49 -21 58 8 3 24 1 35 -6 12 -6 21 -7 21 -1 0 17 -46 27
-66 13z"/>
<path d="M1240 1440 l0 -80 43 2 c36 1 38 2 10 5 l-33 4 0 75 c0 43 -4 74 -10
74 -6 0 -10 -33 -10 -80z"/>
<path d="M1416 1499 c-33 -26 -37 -88 -6 -119 48 -48 130 -11 130 60 0 71 -67
104 -124 59z m94 -16 c36 -46 12 -113 -40 -113 -38 0 -74 44 -65 80 16 62 69
79 105 33z"/>
<path d="M1628 1440 c2 -44 7 -80 10 -80 4 0 6 28 4 62 l-3 63 60 -65 60 -65
1 83 c0 45 -3 82 -7 82 -5 0 -6 -27 -5 -60 2 -33 0 -60 -5 -59 -4 0 -30 27
-57 60 -27 32 -52 59 -55 59 -3 0 -5 -36 -3 -80z"/>
<path d="M1952 1508 c-22 -22 -13 -48 23 -69 37 -22 47 -55 19 -66 -9 -3 -26
-1 -36 6 -16 10 -19 10 -16 -1 3 -7 19 -14 36 -16 55 -6 67 66 13 83 -27 8
-42 30 -35 49 7 19 35 21 53 4 11 -11 13 -10 9 2 -6 19 -49 25 -66 8z"/>
<path d="M2110 1456 c0 -71 14 -96 54 -96 41 0 57 30 53 101 l-3 64 -2 -66
c-2 -72 -15 -93 -54 -87 -21 3 -23 8 -26 76 -4 89 -22 96 -22 8z"/>
<path d="M2325 1496 c-33 -33 -33 -79 0 -111 25 -26 68 -32 95 -15 10 6 3 8
-23 3 -28 -4 -42 -1 -57 12 -26 24 -26 79 0 105 23 23 42 25 72 9 16 -9 19 -8
16 3 -3 7 -21 14 -41 16 -28 2 -42 -3 -62 -22z"/>
<path d="M2525 1495 c-16 -15 -25 -36 -25 -55 0 -58 72 -100 120 -70 10 6 3 8
-23 3 -47 -7 -77 16 -77 61 0 61 42 92 91 66 11 -6 19 -7 19 -1 0 5 -7 12 -16
15 -32 12 -66 5 -89 -19z"/>
<path d="M2710 1440 l0 -80 43 2 c36 1 38 2 10 5 l-33 4 0 71 0 71 30 -6 c17
-4 30 -2 30 3 0 6 -18 10 -40 10 l-40 0 0 -80z"/>
<path d="M2882 1508 c-22 -22 -13 -52 24 -76 22 -14 34 -29 32 -40 -4 -21 -44
-28 -65 -10 -14 11 -15 11 -11 -2 6 -19 55 -25 74 -9 23 19 13 51 -23 74 -51
32 -36 83 16 55 12 -6 21 -7 21 -1 0 20 -50 27 -68 9z"/>
<path d="M3042 1508 c-22 -22 -13 -52 24 -76 22 -14 34 -29 32 -40 -4 -21 -44
-28 -65 -10 -14 11 -15 11 -11 -2 6 -19 55 -25 74 -9 23 19 13 51 -23 74 -51
32 -36 83 16 55 12 -6 21 -7 21 -1 0 20 -50 27 -68 9z"/>
<path d="M1063 1435 c-17 -41 -28 -75 -24 -75 4 0 12 14 18 30 9 24 17 30 42
30 27 0 32 -4 38 -30 3 -16 11 -30 19 -30 9 0 4 22 -18 75 -17 41 -33 75 -37
75 -4 0 -21 -34 -38 -75z m57 3 c0 -4 -11 -8 -25 -8 -23 0 -24 2 -13 26 11 24
13 25 25 8 7 -10 13 -21 13 -26z"/>
<path d="M2748 1433 c6 -2 18 -2 25 0 6 3 1 5 -13 5 -14 0 -19 -2 -12 -5z"/>
<path d="M1778 1200 c2 -44 7 -80 10 -80 4 0 6 30 5 67 l-3 68 27 -62 c14 -35
30 -63 33 -63 4 0 18 26 33 58 l25 57 1 -62 c1 -35 5 -63 11 -63 6 0 10 34 10
81 0 94 -11 99 -44 22 -12 -29 -25 -55 -29 -59 -3 -4 -18 21 -33 55 -37 85
-50 80 -46 -19z"/>
<path d="M2046 1212 c-16 -37 -30 -73 -33 -79 -3 -7 -1 -13 5 -13 5 0 12 14
16 30 5 26 10 30 37 30 25 0 33 -6 42 -30 6 -16 15 -30 19 -30 4 0 8 2 8 4 0
5 -60 149 -63 153 -2 1 -16 -27 -31 -65z m44 -9 c0 -7 -9 -13 -20 -13 -23 0
-24 4 -9 32 9 17 13 18 20 7 5 -8 9 -20 9 -26z"/>
<path d="M2220 1203 c0 -46 4 -83 9 -83 5 0 6 27 4 60 -6 63 4 76 29 42 7 -10
30 -38 51 -62 l37 -44 -2 85 c-2 78 -2 80 -5 20 l-4 -64 -59 64 -59 64 -1 -82z"/>
<path d="M2487 1266 c-4 -10 -1 -24 8 -32 21 -22 19 -44 -6 -44 -16 0 -19 5
-15 23 3 12 -5 0 -18 -28 -28 -56 -30 -65 -17 -65 5 0 11 14 15 30 5 26 10 30
37 30 25 0 33 -6 42 -30 13 -34 32 -42 21 -8 -3 12 -19 48 -33 82 -21 46 -29
56 -34 42z"/>
<path d="M2673 1270 c-76 -31 -43 -150 41 -150 38 0 40 2 50 43 4 16 2 27 -4
27 -5 0 -10 -13 -10 -30 0 -28 -3 -30 -34 -30 -40 0 -66 28 -66 72 0 51 65 89
98 56 8 -8 12 -8 12 -1 0 22 -47 29 -87 13z"/>
<path d="M2852 1200 l1 -80 41 2 c37 1 38 2 9 5 l-33 4 0 71 0 70 30 -4 c17
-3 30 -1 30 4 0 4 -18 8 -39 8 l-39 0 0 -80z"/>
<path d="M3011 1200 c-1 -49 2 -80 9 -80 6 0 10 30 10 75 0 41 4 75 9 75 42 0
59 -54 21 -68 -19 -7 -19 -9 11 -45 17 -20 35 -37 41 -37 5 0 -2 14 -16 31
-30 35 -31 42 -11 59 23 19 18 49 -11 60 -57 22 -61 17 -63 -70z"/>
<path d="M2888 1193 c6 -2 18 -2 25 0 6 3 1 5 -13 5 -14 0 -19 -2 -12 -5z"/>
</g>
</svg>
